<svg width="83" height="77" viewBox="0 0 83 77" fill="none" xmlns="http://www.w3.org/2000/svg">
    <mask id="path-1-outside-1" maskUnits="userSpaceOnUse" x="0" y="0" width="83" height="77" fill="black">
        <rect fill="white" width="83" height="77"/>
        <path d="M80.8089 32.2989C80.2201 31.404 79.3761 30.7065 78.3865 30.2964C77.3968 29.8863 76.3068 29.7827 75.2576 29.9989C74.2083 30.2151 73.2482 30.7411 72.5012 31.509C71.7543 32.2769 71.2549 33.2512 71.0678 34.306L66.1437 34.8413C65.5336 30.8994 63.9851 27.1619 61.6285 23.9437C59.2719 20.7255 56.1763 18.1209 52.6025 16.3493L54.7167 11.5858C56.0043 11.8616 57.3483 11.6531 58.4918 11.0001C59.6353 10.3472 60.4979 9.29569 60.9147 8.04665C61.3316 6.79761 61.2734 5.43867 60.7512 4.22986C60.2291 3.02105 59.2797 2.0472 58.0846 1.49445C56.8895 0.941703 55.5324 0.848845 54.2731 1.23376C53.0139 1.61868 51.9407 2.45436 51.2589 3.58084C50.577 4.70733 50.3345 6.04557 50.5774 7.33973C50.8204 8.63388 51.5317 9.7931 52.5757 10.5956L50.4348 15.4126C48.7067 14.7496 46.9123 14.2741 45.0826 13.9943C44.771 13.9559 44.4569 14.0408 44.2069 14.2308C43.957 14.4207 43.791 14.7007 43.7445 15.0112C43.7066 15.3197 43.7923 15.6307 43.9828 15.8764C44.1734 16.122 44.4532 16.2824 44.7615 16.3225C47.926 16.7797 50.9574 17.9036 53.6552 19.6198C56.353 21.3361 58.6556 23.6055 60.4108 26.278C62.166 28.9506 63.3337 31.9654 63.8368 35.1229C64.3399 38.2805 64.1669 41.5089 63.3292 44.5946C62.4915 47.6803 61.0081 50.553 58.9772 53.0227C56.9464 55.4923 54.4144 57.5026 51.5486 58.9206C48.6829 60.3386 45.5487 61.132 42.3534 61.2484C39.1581 61.3647 35.9745 60.8013 33.0133 59.5954L33.7091 58.0165C33.827 57.7284 33.8287 57.4058 33.714 57.1164C33.5992 56.827 33.3769 56.5933 33.0936 56.4643C32.9514 56.4023 32.7983 56.3692 32.6431 56.3666C32.488 56.364 32.3338 56.3922 32.1896 56.4494C32.0453 56.5066 31.9138 56.5917 31.8026 56.6999C31.6914 56.8081 31.6026 56.9372 31.5414 57.0798L30.8724 58.5784C27.7438 56.9015 25.0546 54.5107 23.0227 51.6001C20.9909 48.6894 19.6735 45.3408 19.1778 41.8259L20.8102 41.6386C21.1181 41.6049 21.4004 41.4511 21.5958 41.2106C21.7912 40.9702 21.8839 40.6624 21.8539 40.3541C21.8137 40.0439 21.6544 39.7615 21.4096 39.5667C21.1649 39.3719 20.8539 39.28 20.5426 39.3104L18.9636 39.471C18.8337 35.9505 19.5312 32.4485 20.9998 29.2463C22.4684 26.0441 24.6674 23.2309 27.4203 21.0325L28.3034 22.2368C28.4857 22.487 28.7592 22.6554 29.0647 22.7055C29.3703 22.7555 29.6832 22.6833 29.9358 22.5044C30.1879 22.3173 30.3569 22.0391 30.4069 21.7292C30.4569 21.4193 30.3838 21.102 30.2034 20.8451L29.3204 19.6676C32.361 17.731 35.8196 16.5476 39.4092 16.2155C39.5619 16.2057 39.7111 16.1648 39.8475 16.0953C39.9838 16.0259 40.1045 15.9293 40.2022 15.8115C40.3 15.6938 40.3726 15.5573 40.4157 15.4105C40.4588 15.2637 40.4715 15.1096 40.453 14.9577C40.4431 14.8015 40.4016 14.6489 40.3308 14.5093C40.26 14.3698 40.1614 14.2461 40.0412 14.1459C39.9209 14.0457 39.7814 13.971 39.6314 13.9266C39.4813 13.8821 39.3239 13.8688 39.1685 13.8873C35.168 14.2553 31.3184 15.5967 27.9555 17.7944L24.7977 13.4323C25.6778 12.453 26.1659 11.1836 26.1689 9.86696C26.172 8.55031 25.6896 7.27876 24.8141 6.29543C23.9385 5.3121 22.7312 4.68605 21.423 4.53694C20.1148 4.38782 18.7975 4.7261 17.7231 5.48715C16.6487 6.2482 15.8924 7.37863 15.599 8.66219C15.3057 9.94574 15.4957 11.2923 16.1328 12.4446C16.7699 13.5968 17.8094 14.4738 19.0525 14.9078C20.2956 15.3418 21.655 15.3024 22.8708 14.7971L26.0554 19.1592C22.9721 21.6022 20.5111 24.7406 18.8738 28.3175C17.2365 31.8944 16.4694 35.8082 16.6354 39.7385L11.4437 40.2738C11.0379 39.0214 10.1847 37.9626 9.04725 37.2997C7.90982 36.6368 6.56796 36.4164 5.27824 36.6805C3.98851 36.9447 2.84145 37.6749 2.05624 38.7316C1.27103 39.7883 0.902799 41.0973 1.02199 42.4084C1.14118 43.7195 1.73935 44.9407 2.70224 45.8385C3.66513 46.7363 4.92522 47.2477 6.24144 47.275C7.55766 47.3023 8.83774 46.8434 9.83699 45.9863C10.8362 45.1291 11.4845 43.9338 11.6579 42.6288L16.8496 42.0668C17.3817 46.0022 18.8439 49.7541 21.1149 53.0118C23.386 56.2695 26.4006 58.9392 29.909 60.7997L27.9287 65.2955C27.5993 65.268 27.2681 65.268 26.9386 65.2955C25.8744 65.2959 24.8345 65.6134 23.9516 66.2077C23.0688 66.8019 22.3831 67.6458 21.9823 68.6316C21.5814 69.6174 21.4834 70.7004 21.701 71.7421C21.9186 72.7838 22.4419 73.7371 23.2039 74.48C23.9658 75.2229 24.9319 75.7218 25.9788 75.9129C27.0257 76.1041 28.1059 75.9788 29.0812 75.5531C30.0566 75.1274 30.8828 74.4207 31.4545 73.5231C32.0262 72.6255 32.3174 71.5778 32.2908 70.5139C32.2919 69.7007 32.1011 68.8988 31.7337 68.1734C31.3663 67.4479 30.8327 66.8195 30.1766 66.3392L32.157 61.8701C35.8792 63.4007 39.9162 64.0078 43.9239 63.6396C47.9315 63.2715 51.7906 61.939 55.1716 59.7559L57.9815 63.6096C57.1163 64.6024 56.6476 65.8793 56.6649 67.1961C56.6821 68.5129 57.1842 69.7772 58.0751 70.747C58.9661 71.7168 60.1833 72.3241 61.4939 72.4526C62.8046 72.5812 64.1165 72.2221 65.179 71.444C66.2414 70.6658 66.9798 69.5233 67.2527 68.2349C67.5256 66.9466 67.3138 65.6029 66.658 64.4609C66.0023 63.3188 64.9486 62.4586 63.6983 62.0448C62.4481 61.631 61.0892 61.6927 59.8816 62.218L57.2055 58.3644C60.3691 55.8823 62.8819 52.6684 64.5276 48.9994C66.1732 45.3305 66.9023 41.3166 66.6521 37.3033L71.5495 36.7681C71.7141 37.5538 72.0533 38.2925 72.5421 38.9294C73.0309 39.5662 73.6566 40.085 74.3731 40.4472C75.0895 40.8095 75.8784 41.0058 76.681 41.0219C77.4837 41.0379 78.2797 40.8732 79.0101 40.5399C79.7404 40.2066 80.3864 39.7133 80.9002 39.0965C81.4141 38.4797 81.7827 37.7551 81.9786 36.9766C82.1744 36.198 82.1926 35.3854 82.0318 34.5989C81.871 33.8123 81.5354 33.072 81.0497 32.4328L80.8089 32.2989ZM55.7871 3.5574C56.5536 3.5574 57.2887 3.86188 57.8308 4.4039C58.3728 4.94592 58.6773 5.68113 58.6773 6.44766C58.6773 7.21419 58.3728 7.94932 57.8308 8.49134C57.2887 9.03336 56.5536 9.33783 55.7871 9.33783C55.0205 9.33783 54.2854 9.03336 53.7434 8.49134C53.2014 7.94932 52.897 7.21419 52.897 6.44766C52.897 5.68113 53.2014 4.94592 53.7434 4.4039C54.2854 3.86188 55.0205 3.5574 55.7871 3.5574ZM19.4455 12.4421C18.949 12.1567 18.5484 11.7301 18.2948 11.2167C18.0411 10.7033 17.9457 10.1261 18.0207 9.55834C18.0956 8.99059 18.3377 8.45789 18.7158 8.02787C19.094 7.59784 19.5914 7.28984 20.1449 7.14299C20.6984 6.99613 21.2832 7.01702 21.8248 7.20301C22.3664 7.389 22.8405 7.73176 23.187 8.18769C23.5336 8.64362 23.7369 9.19217 23.7711 9.76382C23.8054 10.3355 23.669 10.9044 23.3793 11.3984C22.9937 12.056 22.364 12.5346 21.6272 12.7301C20.8904 12.9256 20.1063 12.8221 19.4455 12.4421ZM7.9114 44.4217C7.52838 44.657 7.09564 44.7997 6.64782 44.8384C6.20001 44.8772 5.74938 44.8109 5.33165 44.6449C4.91392 44.479 4.54067 44.2179 4.24153 43.8824C3.9424 43.5469 3.7256 43.1463 3.60844 42.7123C3.49127 42.2784 3.47699 41.8231 3.56662 41.3826C3.65625 40.9421 3.84731 40.5287 4.12475 40.175C4.40218 39.8214 4.75826 39.5374 5.16472 39.3455C5.57118 39.1535 6.01683 39.059 6.46619 39.0695C7.10058 39.063 7.71919 39.2674 8.22485 39.6506C8.7305 40.0337 9.09454 40.5739 9.25992 41.1864C9.42529 41.7989 9.38266 42.449 9.13856 43.0346C8.89446 43.6202 8.46285 44.108 7.9114 44.4217ZM26.9386 73.2703C26.367 73.2703 25.8081 73.1008 25.3328 72.7832C24.8575 72.4657 24.4871 72.0143 24.2683 71.4862C24.0496 70.9581 23.9923 70.3769 24.1039 69.8163C24.2154 69.2557 24.4907 68.7407 24.8949 68.3365C25.2991 67.9323 25.8141 67.657 26.3747 67.5455C26.9354 67.434 27.5164 67.4911 28.0445 67.7099C28.5727 67.9286 29.024 68.2992 29.3416 68.7745C29.6592 69.2497 29.8287 69.8085 29.8287 70.3801C29.8287 71.1467 29.5243 71.8818 28.9823 72.4238C28.4402 72.9658 27.7051 73.2703 26.9386 73.2703ZM61.7282 64.011C62.1775 64.0005 62.6232 64.0949 63.0296 64.2868C63.4361 64.4787 63.7922 64.7629 64.0696 65.1165C64.347 65.4702 64.5381 65.8836 64.6277 66.3241C64.7174 66.7645 64.7031 67.2198 64.5859 67.6538C64.4687 68.0877 64.2519 68.4884 63.9528 68.8239C63.6537 69.1594 63.2804 69.4204 62.8627 69.5864C62.445 69.7524 61.9943 69.8186 61.5465 69.7799C61.0987 69.7411 60.666 69.5984 60.2829 69.3632C59.7439 69.0319 59.3286 68.5328 59.1005 67.9426C58.8725 67.3524 58.8443 66.7037 59.0205 66.096C59.1967 65.4883 59.5676 64.9551 60.076 64.5785C60.5844 64.2018 61.2025 64.0025 61.8351 64.011H61.7282ZM77.5975 37.4103C77.2712 37.602 76.91 37.7271 76.535 37.7784C76.16 37.8297 75.7787 37.8061 75.4129 37.7091C75.0471 37.612 74.704 37.4434 74.4038 37.213C74.1035 36.9826 73.8519 36.6949 73.6636 36.3667C73.3739 35.8727 73.2376 35.3037 73.2719 34.7321C73.3061 34.1604 73.5093 33.6118 73.8558 33.1559C74.2023 32.6999 74.6766 32.3573 75.2182 32.1713C75.7598 31.9853 76.3444 31.9644 76.898 32.1112C77.4515 32.2581 77.949 32.566 78.3272 32.996C78.7054 33.4261 78.9472 33.9588 79.0222 34.5265C79.0971 35.0943 79.0017 35.6715 78.7481 36.185C78.4944 36.6984 78.094 37.1249 77.5975 37.4103Z"/>
        <path d="M38.7403 44.7964C37.7211 44.807 36.7279 45.1188 35.8856 45.6927C35.0433 46.2667 34.3896 47.077 34.0069 48.0216C33.6242 48.9663 33.5295 50.003 33.7348 51.0014C33.9401 51.9997 34.4362 52.915 35.1606 53.632C35.885 54.349 36.8052 54.8356 37.8057 55.0306C38.8061 55.2256 39.8418 55.1202 40.7825 54.7278C41.7231 54.3353 42.5267 53.6734 43.0919 52.8252C43.6571 51.977 43.9587 50.9806 43.9587 49.9613C43.9588 49.2785 43.8234 48.6025 43.5605 47.9724C43.2976 47.3422 42.9124 46.7705 42.4271 46.2902C41.9418 45.8098 41.3661 45.4305 40.7333 45.1742C40.1005 44.9178 39.423 44.7894 38.7403 44.7964ZM38.7403 52.8248C38.211 52.8248 37.6937 52.6679 37.2536 52.3738C36.8135 52.0798 36.4704 51.6618 36.2678 51.1728C36.0653 50.6838 36.0123 50.1457 36.1156 49.6266C36.2189 49.1075 36.4737 48.6306 36.848 48.2563C37.2223 47.8821 37.6991 47.6273 38.2182 47.524C38.7374 47.4207 39.2754 47.4737 39.7644 47.6762C40.2534 47.8788 40.6714 48.2218 40.9654 48.6619C41.2595 49.102 41.4164 49.6194 41.4164 50.1487C41.3955 50.8444 41.1044 51.5047 40.6048 51.9893C40.1051 52.474 39.4363 52.7448 38.7403 52.7445V52.8248Z"/>
        <path d="M49.8194 37.892C49.1419 37.892 48.4797 38.0929 47.9164 38.4693C47.3531 38.8457 46.914 39.3807 46.6548 40.0066C46.3955 40.6325 46.3276 41.3212 46.4597 41.9857C46.5919 42.6502 46.9182 43.2606 47.3973 43.7396C47.8763 44.2187 48.4867 44.5449 49.1512 44.6771C49.8157 44.8093 50.5043 44.7414 51.1302 44.4821C51.7561 44.2229 52.2911 43.7838 52.6675 43.2205C53.0439 42.6572 53.2448 41.995 53.2448 41.3175C53.2448 40.409 52.8839 39.5377 52.2415 38.8953C51.5992 38.2529 50.7279 37.892 49.8194 37.892ZM49.8194 42.3879C49.6077 42.3879 49.4007 42.3251 49.2247 42.2075C49.0487 42.0899 48.9114 41.9226 48.8304 41.7271C48.7494 41.5315 48.7282 41.3162 48.7695 41.1086C48.8108 40.9009 48.9128 40.7102 49.0625 40.5605C49.2122 40.4108 49.4029 40.3088 49.6105 40.2675C49.8181 40.2262 50.0335 40.2475 50.2291 40.3285C50.4247 40.4095 50.5918 40.5467 50.7094 40.7228C50.8271 40.8988 50.8899 41.1058 50.8899 41.3175C50.8899 41.6014 50.7771 41.8736 50.5763 42.0744C50.3756 42.2751 50.1033 42.3879 49.8194 42.3879Z"/>
        <path d="M25.7611 39.8991C25.7558 40.5142 25.9333 41.117 26.2712 41.631C26.6091 42.145 27.092 42.5471 27.6588 42.7861C28.2255 43.0252 28.8506 43.0905 29.4545 42.9737C30.0584 42.857 30.614 42.5635 31.0508 42.1304C31.4876 41.6974 31.786 41.1443 31.908 40.5414C32.0299 39.9385 31.97 39.313 31.7358 38.7442C31.5017 38.1754 31.1038 37.689 30.5928 37.3467C30.0817 37.0044 29.4804 36.8216 28.8653 36.8215C28.0466 36.8215 27.2611 37.1449 26.6797 37.7213C26.0983 38.2977 25.7682 39.0805 25.7611 39.8991ZM29.5879 39.8991C29.6087 40.0075 29.6052 40.1191 29.5778 40.226C29.5504 40.3329 29.4998 40.4324 29.4295 40.5175C29.3592 40.6025 29.2709 40.671 29.1711 40.718C29.0713 40.765 28.9623 40.7894 28.8519 40.7894C28.7416 40.7894 28.6326 40.765 28.5328 40.718C28.4329 40.671 28.3447 40.6025 28.2744 40.5175C28.2041 40.4324 28.1534 40.3329 28.1261 40.226C28.0987 40.1191 28.0953 40.0075 28.1161 39.8991C28.1489 39.728 28.2402 39.5736 28.3745 39.4625C28.5088 39.3515 28.6777 39.2908 28.8519 39.2908C29.0262 39.2908 29.195 39.3515 29.3294 39.4625C29.4637 39.5736 29.5551 39.728 29.5879 39.8991Z"/>
        <path d="M50.1406 25.5016C49.3931 25.5016 48.6626 25.7236 48.0415 26.1394C47.4204 26.5552 46.9368 27.1461 46.652 27.8372C46.3672 28.5282 46.294 29.2882 46.4418 30.0209C46.5896 30.7536 46.9517 31.4259 47.4821 31.9525C48.0125 32.4792 48.6872 32.8364 49.4209 32.9789C50.1546 33.1215 50.9142 33.043 51.6032 32.7533C52.2922 32.4636 52.8796 31.9757 53.291 31.3517C53.7024 30.7277 53.9191 29.9956 53.9138 29.2481C53.9067 28.252 53.5062 27.2991 52.7994 26.5973C52.0925 25.8954 51.1367 25.5016 50.1406 25.5016ZM50.1406 30.6665C49.86 30.6665 49.5859 30.5833 49.3526 30.4274C49.1194 30.2716 48.9376 30.0501 48.8303 29.7909C48.7229 29.5318 48.6947 29.2466 48.7494 28.9715C48.8041 28.6963 48.9393 28.4436 49.1377 28.2453C49.336 28.0469 49.5887 27.9118 49.8639 27.8571C50.139 27.8024 50.4242 27.8304 50.6833 27.9378C50.9425 28.0451 51.164 28.2269 51.3199 28.4601C51.4757 28.6934 51.559 28.9676 51.559 29.2481C51.559 29.6243 51.4094 29.9851 51.1434 30.251C50.8775 30.517 50.5167 30.6665 50.1406 30.6665Z"/>
        <path d="M50.2743 47.6866L49.5251 48.4627C49.4099 48.568 49.3179 48.6962 49.255 48.839C49.192 48.9818 49.1594 49.1362 49.1594 49.2923C49.1594 49.4484 49.192 49.6028 49.255 49.7456C49.3179 49.8884 49.4099 50.0165 49.5251 50.1219C49.7457 50.3408 50.0439 50.4637 50.3547 50.4637C50.6655 50.4637 50.9637 50.3408 51.1843 50.1219L51.9335 49.3458C52.0487 49.2405 52.1407 49.1123 52.2037 48.9695C52.2666 48.8267 52.2992 48.6723 52.2992 48.5162C52.2992 48.3601 52.2666 48.2057 52.2037 48.0629C52.1407 47.9201 52.0487 47.7919 51.9335 47.6866C51.7129 47.4676 51.4147 47.3447 51.1039 47.3447C50.7931 47.3447 50.4949 47.4676 50.2743 47.6866Z"/>
        <path d="M41.2827 39.5779L42.0855 40.3272C42.1972 40.444 42.3318 40.5365 42.4808 40.599C42.6298 40.6614 42.7901 40.6925 42.9517 40.6903C43.1132 40.6882 43.2727 40.6529 43.42 40.5865C43.5673 40.5201 43.6993 40.424 43.8079 40.3044C43.9165 40.1847 43.9994 40.044 44.0513 39.891C44.1031 39.7379 44.1229 39.5759 44.1094 39.4149C44.096 39.2539 44.0496 39.0973 43.973 38.9551C43.8965 38.8128 43.7914 38.6877 43.6645 38.5878L42.8617 37.8385C42.6411 37.6195 42.3429 37.4966 42.0321 37.4966C41.7213 37.4966 41.4229 37.6195 41.2023 37.8385C41.0824 37.9521 40.9885 38.0903 40.9268 38.2436C40.865 38.3968 40.837 38.5616 40.8446 38.7266C40.8522 38.8917 40.8953 39.0531 40.9709 39.2C41.0465 39.3469 41.1528 39.4758 41.2827 39.5779Z"/>
        <path d="M31.0331 31.2017C31.0282 32.373 31.3843 33.5172 32.0528 34.4789C32.7213 35.4407 33.6698 36.1731 34.7693 36.5766C35.8688 36.9801 37.0658 37.0352 38.1977 36.7343C39.3296 36.4334 40.3414 35.791 41.0953 34.8947C41.2874 34.6557 41.3787 34.3513 41.3498 34.046C41.3209 33.7408 41.1742 33.4589 40.9406 33.2602C40.7071 33.0615 40.4052 32.9617 40.0993 32.9821C39.7933 33.0025 39.5075 33.1415 39.3024 33.3694C38.8483 33.9007 38.2391 34.2764 37.5605 34.4438C36.882 34.6112 36.1681 34.5619 35.519 34.3027C34.8699 34.0435 34.3183 33.5876 33.9416 32.9989C33.565 32.4101 33.382 31.7181 33.4188 31.0202C33.4555 30.3222 33.7101 29.6534 34.1465 29.1074C34.5828 28.5615 35.1791 28.1659 35.8519 27.9763C36.5246 27.7867 37.2397 27.8126 37.897 28.0503C38.5543 28.288 39.1207 28.7256 39.5165 29.3016C39.6002 29.4327 39.7096 29.5454 39.8381 29.633C39.9666 29.7205 40.1114 29.7812 40.2639 29.8112C40.4165 29.8412 40.5736 29.84 40.7257 29.8076C40.8778 29.7752 41.0218 29.7123 41.1489 29.6228C41.4034 29.4445 41.5771 29.173 41.6322 28.8672C41.6873 28.5615 41.6195 28.2463 41.4432 27.9904C40.7569 26.9836 39.7661 26.2232 38.616 25.8208C37.466 25.4183 36.2173 25.3949 35.053 25.754C33.8887 26.1132 32.8702 26.836 32.1467 27.8164C31.4233 28.7968 31.0329 29.9833 31.0331 31.2017Z"/>
    </mask>
    <path d="M80.8089 32.2989C80.2201 31.404 79.3761 30.7065 78.3865 30.2964C77.3968 29.8863 76.3068 29.7827 75.2576 29.9989C74.2083 30.2151 73.2482 30.7411 72.5012 31.509C71.7543 32.2769 71.2549 33.2512 71.0678 34.306L66.1437 34.8413C65.5336 30.8994 63.9851 27.1619 61.6285 23.9437C59.2719 20.7255 56.1763 18.1209 52.6025 16.3493L54.7167 11.5858C56.0043 11.8616 57.3483 11.6531 58.4918 11.0001C59.6353 10.3472 60.4979 9.29569 60.9147 8.04665C61.3316 6.79761 61.2734 5.43867 60.7512 4.22986C60.2291 3.02105 59.2797 2.0472 58.0846 1.49445C56.8895 0.941703 55.5324 0.848845 54.2731 1.23376C53.0139 1.61868 51.9407 2.45436 51.2589 3.58084C50.577 4.70733 50.3345 6.04557 50.5774 7.33973C50.8204 8.63388 51.5317 9.7931 52.5757 10.5956L50.4348 15.4126C48.7067 14.7496 46.9123 14.2741 45.0826 13.9943C44.771 13.9559 44.4569 14.0408 44.2069 14.2308C43.957 14.4207 43.791 14.7007 43.7445 15.0112C43.7066 15.3197 43.7923 15.6307 43.9828 15.8764C44.1734 16.122 44.4532 16.2824 44.7615 16.3225C47.926 16.7797 50.9574 17.9036 53.6552 19.6198C56.353 21.3361 58.6556 23.6055 60.4108 26.278C62.166 28.9506 63.3337 31.9654 63.8368 35.1229C64.3399 38.2805 64.1669 41.5089 63.3292 44.5946C62.4915 47.6803 61.0081 50.553 58.9772 53.0227C56.9464 55.4923 54.4144 57.5026 51.5486 58.9206C48.6829 60.3386 45.5487 61.132 42.3534 61.2484C39.1581 61.3647 35.9745 60.8013 33.0133 59.5954L33.7091 58.0165C33.827 57.7284 33.8287 57.4058 33.714 57.1164C33.5992 56.827 33.3769 56.5933 33.0936 56.4643C32.9514 56.4023 32.7983 56.3692 32.6431 56.3666C32.488 56.364 32.3338 56.3922 32.1896 56.4494C32.0453 56.5066 31.9138 56.5917 31.8026 56.6999C31.6914 56.8081 31.6026 56.9372 31.5414 57.0798L30.8724 58.5784C27.7438 56.9015 25.0546 54.5107 23.0227 51.6001C20.9909 48.6894 19.6735 45.3408 19.1778 41.8259L20.8102 41.6386C21.1181 41.6049 21.4004 41.4511 21.5958 41.2106C21.7912 40.9702 21.8839 40.6624 21.8539 40.3541C21.8137 40.0439 21.6544 39.7615 21.4096 39.5667C21.1649 39.3719 20.8539 39.28 20.5426 39.3104L18.9636 39.471C18.8337 35.9505 19.5312 32.4485 20.9998 29.2463C22.4684 26.0441 24.6674 23.2309 27.4203 21.0325L28.3034 22.2368C28.4857 22.487 28.7592 22.6554 29.0647 22.7055C29.3703 22.7555 29.6832 22.6833 29.9358 22.5044C30.1879 22.3173 30.3569 22.0391 30.4069 21.7292C30.4569 21.4193 30.3838 21.102 30.2034 20.8451L29.3204 19.6676C32.361 17.731 35.8196 16.5476 39.4092 16.2155C39.5619 16.2057 39.7111 16.1648 39.8475 16.0953C39.9838 16.0259 40.1045 15.9293 40.2022 15.8115C40.3 15.6938 40.3726 15.5573 40.4157 15.4105C40.4588 15.2637 40.4715 15.1096 40.453 14.9577C40.4431 14.8015 40.4016 14.6489 40.3308 14.5093C40.26 14.3698 40.1614 14.2461 40.0412 14.1459C39.9209 14.0457 39.7814 13.971 39.6314 13.9266C39.4813 13.8821 39.3239 13.8688 39.1685 13.8873C35.168 14.2553 31.3184 15.5967 27.9555 17.7944L24.7977 13.4323C25.6778 12.453 26.1659 11.1836 26.1689 9.86696C26.172 8.55031 25.6896 7.27876 24.8141 6.29543C23.9385 5.3121 22.7312 4.68605 21.423 4.53694C20.1148 4.38782 18.7975 4.7261 17.7231 5.48715C16.6487 6.2482 15.8924 7.37863 15.599 8.66219C15.3057 9.94574 15.4957 11.2923 16.1328 12.4446C16.7699 13.5968 17.8094 14.4738 19.0525 14.9078C20.2956 15.3418 21.655 15.3024 22.8708 14.7971L26.0554 19.1592C22.9721 21.6022 20.5111 24.7406 18.8738 28.3175C17.2365 31.8944 16.4694 35.8082 16.6354 39.7385L11.4437 40.2738C11.0379 39.0214 10.1847 37.9626 9.04725 37.2997C7.90982 36.6368 6.56796 36.4164 5.27824 36.6805C3.98851 36.9447 2.84145 37.6749 2.05624 38.7316C1.27103 39.7883 0.902799 41.0973 1.02199 42.4084C1.14118 43.7195 1.73935 44.9407 2.70224 45.8385C3.66513 46.7363 4.92522 47.2477 6.24144 47.275C7.55766 47.3023 8.83774 46.8434 9.83699 45.9863C10.8362 45.1291 11.4845 43.9338 11.6579 42.6288L16.8496 42.0668C17.3817 46.0022 18.8439 49.7541 21.1149 53.0118C23.386 56.2695 26.4006 58.9392 29.909 60.7997L27.9287 65.2955C27.5993 65.268 27.2681 65.268 26.9386 65.2955C25.8744 65.2959 24.8345 65.6134 23.9516 66.2077C23.0688 66.8019 22.3831 67.6458 21.9823 68.6316C21.5814 69.6174 21.4834 70.7004 21.701 71.7421C21.9186 72.7838 22.4419 73.7371 23.2039 74.48C23.9658 75.2229 24.9319 75.7218 25.9788 75.9129C27.0257 76.1041 28.1059 75.9788 29.0812 75.5531C30.0566 75.1274 30.8828 74.4207 31.4545 73.5231C32.0262 72.6255 32.3174 71.5778 32.2908 70.5139C32.2919 69.7007 32.1011 68.8988 31.7337 68.1734C31.3663 67.4479 30.8327 66.8195 30.1766 66.3392L32.157 61.8701C35.8792 63.4007 39.9162 64.0078 43.9239 63.6396C47.9315 63.2715 51.7906 61.939 55.1716 59.7559L57.9815 63.6096C57.1163 64.6024 56.6476 65.8793 56.6649 67.1961C56.6821 68.5129 57.1842 69.7772 58.0751 70.747C58.9661 71.7168 60.1833 72.3241 61.4939 72.4526C62.8046 72.5812 64.1165 72.2221 65.179 71.444C66.2414 70.6658 66.9798 69.5233 67.2527 68.2349C67.5256 66.9466 67.3138 65.6029 66.658 64.4609C66.0023 63.3188 64.9486 62.4586 63.6983 62.0448C62.4481 61.631 61.0892 61.6927 59.8816 62.218L57.2055 58.3644C60.3691 55.8823 62.8819 52.6684 64.5276 48.9994C66.1732 45.3305 66.9023 41.3166 66.6521 37.3033L71.5495 36.7681C71.7141 37.5538 72.0533 38.2925 72.5421 38.9294C73.0309 39.5662 73.6566 40.085 74.3731 40.4472C75.0895 40.8095 75.8784 41.0058 76.681 41.0219C77.4837 41.0379 78.2797 40.8732 79.0101 40.5399C79.7404 40.2066 80.3864 39.7133 80.9002 39.0965C81.4141 38.4797 81.7827 37.7551 81.9786 36.9766C82.1744 36.198 82.1926 35.3854 82.0318 34.5989C81.871 33.8123 81.5354 33.072 81.0497 32.4328L80.8089 32.2989ZM55.7871 3.5574C56.5536 3.5574 57.2887 3.86188 57.8308 4.4039C58.3728 4.94592 58.6773 5.68113 58.6773 6.44766C58.6773 7.21419 58.3728 7.94932 57.8308 8.49134C57.2887 9.03336 56.5536 9.33783 55.7871 9.33783C55.0205 9.33783 54.2854 9.03336 53.7434 8.49134C53.2014 7.94932 52.897 7.21419 52.897 6.44766C52.897 5.68113 53.2014 4.94592 53.7434 4.4039C54.2854 3.86188 55.0205 3.5574 55.7871 3.5574ZM19.4455 12.4421C18.949 12.1567 18.5484 11.7301 18.2948 11.2167C18.0411 10.7033 17.9457 10.1261 18.0207 9.55834C18.0956 8.99059 18.3377 8.45789 18.7158 8.02787C19.094 7.59784 19.5914 7.28984 20.1449 7.14299C20.6984 6.99613 21.2832 7.01702 21.8248 7.20301C22.3664 7.389 22.8405 7.73176 23.187 8.18769C23.5336 8.64362 23.7369 9.19217 23.7711 9.76382C23.8054 10.3355 23.669 10.9044 23.3793 11.3984C22.9937 12.056 22.364 12.5346 21.6272 12.7301C20.8904 12.9256 20.1063 12.8221 19.4455 12.4421ZM7.9114 44.4217C7.52838 44.657 7.09564 44.7997 6.64782 44.8384C6.20001 44.8772 5.74938 44.8109 5.33165 44.6449C4.91392 44.479 4.54067 44.2179 4.24153 43.8824C3.9424 43.5469 3.7256 43.1463 3.60844 42.7123C3.49127 42.2784 3.47699 41.8231 3.56662 41.3826C3.65625 40.9421 3.84731 40.5287 4.12475 40.175C4.40218 39.8214 4.75826 39.5374 5.16472 39.3455C5.57118 39.1535 6.01683 39.059 6.46619 39.0695C7.10058 39.063 7.71919 39.2674 8.22485 39.6506C8.7305 40.0337 9.09454 40.5739 9.25992 41.1864C9.42529 41.7989 9.38266 42.449 9.13856 43.0346C8.89446 43.6202 8.46285 44.108 7.9114 44.4217ZM26.9386 73.2703C26.367 73.2703 25.8081 73.1008 25.3328 72.7832C24.8575 72.4657 24.4871 72.0143 24.2683 71.4862C24.0496 70.9581 23.9923 70.3769 24.1039 69.8163C24.2154 69.2557 24.4907 68.7407 24.8949 68.3365C25.2991 67.9323 25.8141 67.657 26.3747 67.5455C26.9354 67.434 27.5164 67.4911 28.0445 67.7099C28.5727 67.9286 29.024 68.2992 29.3416 68.7745C29.6592 69.2497 29.8287 69.8085 29.8287 70.3801C29.8287 71.1467 29.5243 71.8818 28.9823 72.4238C28.4402 72.9658 27.7051 73.2703 26.9386 73.2703ZM61.7282 64.011C62.1775 64.0005 62.6232 64.0949 63.0296 64.2868C63.4361 64.4787 63.7922 64.7629 64.0696 65.1165C64.347 65.4702 64.5381 65.8836 64.6277 66.3241C64.7174 66.7645 64.7031 67.2198 64.5859 67.6538C64.4687 68.0877 64.2519 68.4884 63.9528 68.8239C63.6537 69.1594 63.2804 69.4204 62.8627 69.5864C62.445 69.7524 61.9943 69.8186 61.5465 69.7799C61.0987 69.7411 60.666 69.5984 60.2829 69.3632C59.7439 69.0319 59.3286 68.5328 59.1005 67.9426C58.8725 67.3524 58.8443 66.7037 59.0205 66.096C59.1967 65.4883 59.5676 64.9551 60.076 64.5785C60.5844 64.2018 61.2025 64.0025 61.8351 64.011H61.7282ZM77.5975 37.4103C77.2712 37.602 76.91 37.7271 76.535 37.7784C76.16 37.8297 75.7787 37.8061 75.4129 37.7091C75.0471 37.612 74.704 37.4434 74.4038 37.213C74.1035 36.9826 73.8519 36.6949 73.6636 36.3667C73.3739 35.8727 73.2376 35.3037 73.2719 34.7321C73.3061 34.1604 73.5093 33.6118 73.8558 33.1559C74.2023 32.6999 74.6766 32.3573 75.2182 32.1713C75.7598 31.9853 76.3444 31.9644 76.898 32.1112C77.4515 32.2581 77.949 32.566 78.3272 32.996C78.7054 33.4261 78.9472 33.9588 79.0222 34.5265C79.0971 35.0943 79.0017 35.6715 78.7481 36.185C78.4944 36.6984 78.094 37.1249 77.5975 37.4103Z" fill="#1E7FB8"/>
    <path d="M38.7403 44.7964C37.7211 44.807 36.7279 45.1188 35.8856 45.6927C35.0433 46.2667 34.3896 47.077 34.0069 48.0216C33.6242 48.9663 33.5295 50.003 33.7348 51.0014C33.9401 51.9997 34.4362 52.915 35.1606 53.632C35.885 54.349 36.8052 54.8356 37.8057 55.0306C38.8061 55.2256 39.8418 55.1202 40.7825 54.7278C41.7231 54.3353 42.5267 53.6734 43.0919 52.8252C43.6571 51.977 43.9587 50.9806 43.9587 49.9613C43.9588 49.2785 43.8234 48.6025 43.5605 47.9724C43.2976 47.3422 42.9124 46.7705 42.4271 46.2902C41.9418 45.8098 41.3661 45.4305 40.7333 45.1742C40.1005 44.9178 39.423 44.7894 38.7403 44.7964ZM38.7403 52.8248C38.211 52.8248 37.6937 52.6679 37.2536 52.3738C36.8135 52.0798 36.4704 51.6618 36.2678 51.1728C36.0653 50.6838 36.0123 50.1457 36.1156 49.6266C36.2189 49.1075 36.4737 48.6306 36.848 48.2563C37.2223 47.8821 37.6991 47.6273 38.2182 47.524C38.7374 47.4207 39.2754 47.4737 39.7644 47.6762C40.2534 47.8788 40.6714 48.2218 40.9654 48.6619C41.2595 49.102 41.4164 49.6194 41.4164 50.1487C41.3955 50.8444 41.1044 51.5047 40.6048 51.9893C40.1051 52.474 39.4363 52.7448 38.7403 52.7445V52.8248Z" fill="#1E7FB8"/>
    <path d="M49.8194 37.892C49.1419 37.892 48.4797 38.0929 47.9164 38.4693C47.3531 38.8457 46.914 39.3807 46.6548 40.0066C46.3955 40.6325 46.3276 41.3212 46.4597 41.9857C46.5919 42.6502 46.9182 43.2606 47.3973 43.7396C47.8763 44.2187 48.4867 44.5449 49.1512 44.6771C49.8157 44.8093 50.5043 44.7414 51.1302 44.4821C51.7561 44.2229 52.2911 43.7838 52.6675 43.2205C53.0439 42.6572 53.2448 41.995 53.2448 41.3175C53.2448 40.409 52.8839 39.5377 52.2415 38.8953C51.5992 38.2529 50.7279 37.892 49.8194 37.892ZM49.8194 42.3879C49.6077 42.3879 49.4007 42.3251 49.2247 42.2075C49.0487 42.0899 48.9114 41.9226 48.8304 41.7271C48.7494 41.5315 48.7282 41.3162 48.7695 41.1086C48.8108 40.9009 48.9128 40.7102 49.0625 40.5605C49.2122 40.4108 49.4029 40.3088 49.6105 40.2675C49.8181 40.2262 50.0335 40.2475 50.2291 40.3285C50.4247 40.4095 50.5918 40.5467 50.7094 40.7228C50.8271 40.8988 50.8899 41.1058 50.8899 41.3175C50.8899 41.6014 50.7771 41.8736 50.5763 42.0744C50.3756 42.2751 50.1033 42.3879 49.8194 42.3879Z" fill="#1E7FB8"/>
    <path d="M25.7611 39.8991C25.7558 40.5142 25.9333 41.117 26.2712 41.631C26.6091 42.145 27.092 42.5471 27.6588 42.7861C28.2255 43.0252 28.8506 43.0905 29.4545 42.9737C30.0584 42.857 30.614 42.5635 31.0508 42.1304C31.4876 41.6974 31.786 41.1443 31.908 40.5414C32.0299 39.9385 31.97 39.313 31.7358 38.7442C31.5017 38.1754 31.1038 37.689 30.5928 37.3467C30.0817 37.0044 29.4804 36.8216 28.8653 36.8215C28.0466 36.8215 27.2611 37.1449 26.6797 37.7213C26.0983 38.2977 25.7682 39.0805 25.7611 39.8991ZM29.5879 39.8991C29.6087 40.0075 29.6052 40.1191 29.5778 40.226C29.5504 40.3329 29.4998 40.4324 29.4295 40.5175C29.3592 40.6025 29.2709 40.671 29.1711 40.718C29.0713 40.765 28.9623 40.7894 28.8519 40.7894C28.7416 40.7894 28.6326 40.765 28.5328 40.718C28.4329 40.671 28.3447 40.6025 28.2744 40.5175C28.2041 40.4324 28.1534 40.3329 28.1261 40.226C28.0987 40.1191 28.0953 40.0075 28.1161 39.8991C28.1489 39.728 28.2402 39.5736 28.3745 39.4625C28.5088 39.3515 28.6777 39.2908 28.8519 39.2908C29.0262 39.2908 29.195 39.3515 29.3294 39.4625C29.4637 39.5736 29.5551 39.728 29.5879 39.8991Z" fill="#1E7FB8"/>
    <path d="M50.1406 25.5016C49.3931 25.5016 48.6626 25.7236 48.0415 26.1394C47.4204 26.5552 46.9368 27.1461 46.652 27.8372C46.3672 28.5282 46.294 29.2882 46.4418 30.0209C46.5896 30.7536 46.9517 31.4259 47.4821 31.9525C48.0125 32.4792 48.6872 32.8364 49.4209 32.9789C50.1546 33.1215 50.9142 33.043 51.6032 32.7533C52.2922 32.4636 52.8796 31.9757 53.291 31.3517C53.7024 30.7277 53.9191 29.9956 53.9138 29.2481C53.9067 28.252 53.5062 27.2991 52.7994 26.5973C52.0925 25.8954 51.1367 25.5016 50.1406 25.5016ZM50.1406 30.6665C49.86 30.6665 49.5859 30.5833 49.3526 30.4274C49.1194 30.2716 48.9376 30.0501 48.8303 29.7909C48.7229 29.5318 48.6947 29.2466 48.7494 28.9715C48.8041 28.6963 48.9393 28.4436 49.1377 28.2453C49.336 28.0469 49.5887 27.9118 49.8639 27.8571C50.139 27.8024 50.4242 27.8304 50.6833 27.9378C50.9425 28.0451 51.164 28.2269 51.3199 28.4601C51.4757 28.6934 51.559 28.9676 51.559 29.2481C51.559 29.6243 51.4094 29.9851 51.1434 30.251C50.8775 30.517 50.5167 30.6665 50.1406 30.6665Z" fill="#1E7FB8"/>
    <path d="M50.2743 47.6866L49.5251 48.4627C49.4099 48.568 49.3179 48.6962 49.255 48.839C49.192 48.9818 49.1594 49.1362 49.1594 49.2923C49.1594 49.4484 49.192 49.6028 49.255 49.7456C49.3179 49.8884 49.4099 50.0165 49.5251 50.1219C49.7457 50.3408 50.0439 50.4637 50.3547 50.4637C50.6655 50.4637 50.9637 50.3408 51.1843 50.1219L51.9335 49.3458C52.0487 49.2405 52.1407 49.1123 52.2037 48.9695C52.2666 48.8267 52.2992 48.6723 52.2992 48.5162C52.2992 48.3601 52.2666 48.2057 52.2037 48.0629C52.1407 47.9201 52.0487 47.7919 51.9335 47.6866C51.7129 47.4676 51.4147 47.3447 51.1039 47.3447C50.7931 47.3447 50.4949 47.4676 50.2743 47.6866Z" fill="#1E7FB8"/>
    <path d="M41.2827 39.5779L42.0855 40.3272C42.1972 40.444 42.3318 40.5365 42.4808 40.599C42.6298 40.6614 42.7901 40.6925 42.9517 40.6903C43.1132 40.6882 43.2727 40.6529 43.42 40.5865C43.5673 40.5201 43.6993 40.424 43.8079 40.3044C43.9165 40.1847 43.9994 40.044 44.0513 39.891C44.1031 39.7379 44.1229 39.5759 44.1094 39.4149C44.096 39.2539 44.0496 39.0973 43.973 38.9551C43.8965 38.8128 43.7914 38.6877 43.6645 38.5878L42.8617 37.8385C42.6411 37.6195 42.3429 37.4966 42.0321 37.4966C41.7213 37.4966 41.4229 37.6195 41.2023 37.8385C41.0824 37.9521 40.9885 38.0903 40.9268 38.2436C40.865 38.3968 40.837 38.5616 40.8446 38.7266C40.8522 38.8917 40.8953 39.0531 40.9709 39.2C41.0465 39.3469 41.1528 39.4758 41.2827 39.5779Z" fill="#1E7FB8"/>
    <path d="M31.0331 31.2017C31.0282 32.373 31.3843 33.5172 32.0528 34.4789C32.7213 35.4407 33.6698 36.1731 34.7693 36.5766C35.8688 36.9801 37.0658 37.0352 38.1977 36.7343C39.3296 36.4334 40.3414 35.791 41.0953 34.8947C41.2874 34.6557 41.3787 34.3513 41.3498 34.046C41.3209 33.7408 41.1742 33.4589 40.9406 33.2602C40.7071 33.0615 40.4052 32.9617 40.0993 32.9821C39.7933 33.0025 39.5075 33.1415 39.3024 33.3694C38.8483 33.9007 38.2391 34.2764 37.5605 34.4438C36.882 34.6112 36.1681 34.5619 35.519 34.3027C34.8699 34.0435 34.3183 33.5876 33.9416 32.9989C33.565 32.4101 33.382 31.7181 33.4188 31.0202C33.4555 30.3222 33.7101 29.6534 34.1465 29.1074C34.5828 28.5615 35.1791 28.1659 35.8519 27.9763C36.5246 27.7867 37.2397 27.8126 37.897 28.0503C38.5543 28.288 39.1207 28.7256 39.5165 29.3016C39.6002 29.4327 39.7096 29.5454 39.8381 29.633C39.9666 29.7205 40.1114 29.7812 40.2639 29.8112C40.4165 29.8412 40.5736 29.84 40.7257 29.8076C40.8778 29.7752 41.0218 29.7123 41.1489 29.6228C41.4034 29.4445 41.5771 29.173 41.6322 28.8672C41.6873 28.5615 41.6195 28.2463 41.4432 27.9904C40.7569 26.9836 39.7661 26.2232 38.616 25.8208C37.466 25.4183 36.2173 25.3949 35.053 25.754C33.8887 26.1132 32.8702 26.836 32.1467 27.8164C31.4233 28.7968 31.0329 29.9833 31.0331 31.2017Z" fill="#1E7FB8"/>
    <path d="M80.8089 32.2989C80.2201 31.404 79.3761 30.7065 78.3865 30.2964C77.3968 29.8863 76.3068 29.7827 75.2576 29.9989C74.2083 30.2151 73.2482 30.7411 72.5012 31.509C71.7543 32.2769 71.2549 33.2512 71.0678 34.306L66.1437 34.8413C65.5336 30.8994 63.9851 27.1619 61.6285 23.9437C59.2719 20.7255 56.1763 18.1209 52.6025 16.3493L54.7167 11.5858C56.0043 11.8616 57.3483 11.6531 58.4918 11.0001C59.6353 10.3472 60.4979 9.29569 60.9147 8.04665C61.3316 6.79761 61.2734 5.43867 60.7512 4.22986C60.2291 3.02105 59.2797 2.0472 58.0846 1.49445C56.8895 0.941703 55.5324 0.848845 54.2731 1.23376C53.0139 1.61868 51.9407 2.45436 51.2589 3.58084C50.577 4.70733 50.3345 6.04557 50.5774 7.33973C50.8204 8.63388 51.5317 9.7931 52.5757 10.5956L50.4348 15.4126C48.7067 14.7496 46.9123 14.2741 45.0826 13.9943C44.771 13.9559 44.4569 14.0408 44.2069 14.2308C43.957 14.4207 43.791 14.7007 43.7445 15.0112C43.7066 15.3197 43.7923 15.6307 43.9828 15.8764C44.1734 16.122 44.4532 16.2824 44.7615 16.3225C47.926 16.7797 50.9574 17.9036 53.6552 19.6198C56.353 21.3361 58.6556 23.6055 60.4108 26.278C62.166 28.9506 63.3337 31.9654 63.8368 35.1229C64.3399 38.2805 64.1669 41.5089 63.3292 44.5946C62.4915 47.6803 61.0081 50.553 58.9772 53.0227C56.9464 55.4923 54.4144 57.5026 51.5486 58.9206C48.6829 60.3386 45.5487 61.132 42.3534 61.2484C39.1581 61.3647 35.9745 60.8013 33.0133 59.5954L33.7091 58.0165C33.827 57.7284 33.8287 57.4058 33.714 57.1164C33.5992 56.827 33.3769 56.5933 33.0936 56.4643C32.9514 56.4023 32.7983 56.3692 32.6431 56.3666C32.488 56.364 32.3338 56.3922 32.1896 56.4494C32.0453 56.5066 31.9138 56.5917 31.8026 56.6999C31.6914 56.8081 31.6026 56.9372 31.5414 57.0798L30.8724 58.5784C27.7438 56.9015 25.0546 54.5107 23.0227 51.6001C20.9909 48.6894 19.6735 45.3408 19.1778 41.8259L20.8102 41.6386C21.1181 41.6049 21.4004 41.4511 21.5958 41.2106C21.7912 40.9702 21.8839 40.6624 21.8539 40.3541C21.8137 40.0439 21.6544 39.7615 21.4096 39.5667C21.1649 39.3719 20.8539 39.28 20.5426 39.3104L18.9636 39.471C18.8337 35.9505 19.5312 32.4485 20.9998 29.2463C22.4684 26.0441 24.6674 23.2309 27.4203 21.0325L28.3034 22.2368C28.4857 22.487 28.7592 22.6554 29.0647 22.7055C29.3703 22.7555 29.6832 22.6833 29.9358 22.5044C30.1879 22.3173 30.3569 22.0391 30.4069 21.7292C30.4569 21.4193 30.3838 21.102 30.2034 20.8451L29.3204 19.6676C32.361 17.731 35.8196 16.5476 39.4092 16.2155C39.5619 16.2057 39.7111 16.1648 39.8475 16.0953C39.9838 16.0259 40.1045 15.9293 40.2022 15.8115C40.3 15.6938 40.3726 15.5573 40.4157 15.4105C40.4588 15.2637 40.4715 15.1096 40.453 14.9577C40.4431 14.8015 40.4016 14.6489 40.3308 14.5093C40.26 14.3698 40.1614 14.2461 40.0412 14.1459C39.9209 14.0457 39.7814 13.971 39.6314 13.9266C39.4813 13.8821 39.3239 13.8688 39.1685 13.8873C35.168 14.2553 31.3184 15.5967 27.9555 17.7944L24.7977 13.4323C25.6778 12.453 26.1659 11.1836 26.1689 9.86696C26.172 8.55031 25.6896 7.27876 24.8141 6.29543C23.9385 5.3121 22.7312 4.68605 21.423 4.53694C20.1148 4.38782 18.7975 4.7261 17.7231 5.48715C16.6487 6.2482 15.8924 7.37863 15.599 8.66219C15.3057 9.94574 15.4957 11.2923 16.1328 12.4446C16.7699 13.5968 17.8094 14.4738 19.0525 14.9078C20.2956 15.3418 21.655 15.3024 22.8708 14.7971L26.0554 19.1592C22.9721 21.6022 20.5111 24.7406 18.8738 28.3175C17.2365 31.8944 16.4694 35.8082 16.6354 39.7385L11.4437 40.2738C11.0379 39.0214 10.1847 37.9626 9.04725 37.2997C7.90982 36.6368 6.56796 36.4164 5.27824 36.6805C3.98851 36.9447 2.84145 37.6749 2.05624 38.7316C1.27103 39.7883 0.902799 41.0973 1.02199 42.4084C1.14118 43.7195 1.73935 44.9407 2.70224 45.8385C3.66513 46.7363 4.92522 47.2477 6.24144 47.275C7.55766 47.3023 8.83774 46.8434 9.83699 45.9863C10.8362 45.1291 11.4845 43.9338 11.6579 42.6288L16.8496 42.0668C17.3817 46.0022 18.8439 49.7541 21.1149 53.0118C23.386 56.2695 26.4006 58.9392 29.909 60.7997L27.9287 65.2955C27.5993 65.268 27.2681 65.268 26.9386 65.2955C25.8744 65.2959 24.8345 65.6134 23.9516 66.2077C23.0688 66.8019 22.3831 67.6458 21.9823 68.6316C21.5814 69.6174 21.4834 70.7004 21.701 71.7421C21.9186 72.7838 22.4419 73.7371 23.2039 74.48C23.9658 75.2229 24.9319 75.7218 25.9788 75.9129C27.0257 76.1041 28.1059 75.9788 29.0812 75.5531C30.0566 75.1274 30.8828 74.4207 31.4545 73.5231C32.0262 72.6255 32.3174 71.5778 32.2908 70.5139C32.2919 69.7007 32.1011 68.8988 31.7337 68.1734C31.3663 67.4479 30.8327 66.8195 30.1766 66.3392L32.157 61.8701C35.8792 63.4007 39.9162 64.0078 43.9239 63.6396C47.9315 63.2715 51.7906 61.939 55.1716 59.7559L57.9815 63.6096C57.1163 64.6024 56.6476 65.8793 56.6649 67.1961C56.6821 68.5129 57.1842 69.7772 58.0751 70.747C58.9661 71.7168 60.1833 72.3241 61.4939 72.4526C62.8046 72.5812 64.1165 72.2221 65.179 71.444C66.2414 70.6658 66.9798 69.5233 67.2527 68.2349C67.5256 66.9466 67.3138 65.6029 66.658 64.4609C66.0023 63.3188 64.9486 62.4586 63.6983 62.0448C62.4481 61.631 61.0892 61.6927 59.8816 62.218L57.2055 58.3644C60.3691 55.8823 62.8819 52.6684 64.5276 48.9994C66.1732 45.3305 66.9023 41.3166 66.6521 37.3033L71.5495 36.7681C71.7141 37.5538 72.0533 38.2925 72.5421 38.9294C73.0309 39.5662 73.6566 40.085 74.3731 40.4472C75.0895 40.8095 75.8784 41.0058 76.681 41.0219C77.4837 41.0379 78.2797 40.8732 79.0101 40.5399C79.7404 40.2066 80.3864 39.7133 80.9002 39.0965C81.4141 38.4797 81.7827 37.7551 81.9786 36.9766C82.1744 36.198 82.1926 35.3854 82.0318 34.5989C81.871 33.8123 81.5354 33.072 81.0497 32.4328L80.8089 32.2989ZM55.7871 3.5574C56.5536 3.5574 57.2887 3.86188 57.8308 4.4039C58.3728 4.94592 58.6773 5.68113 58.6773 6.44766C58.6773 7.21419 58.3728 7.94932 57.8308 8.49134C57.2887 9.03336 56.5536 9.33783 55.7871 9.33783C55.0205 9.33783 54.2854 9.03336 53.7434 8.49134C53.2014 7.94932 52.897 7.21419 52.897 6.44766C52.897 5.68113 53.2014 4.94592 53.7434 4.4039C54.2854 3.86188 55.0205 3.5574 55.7871 3.5574ZM19.4455 12.4421C18.949 12.1567 18.5484 11.7301 18.2948 11.2167C18.0411 10.7033 17.9457 10.1261 18.0207 9.55834C18.0956 8.99059 18.3377 8.45789 18.7158 8.02787C19.094 7.59784 19.5914 7.28984 20.1449 7.14299C20.6984 6.99613 21.2832 7.01702 21.8248 7.20301C22.3664 7.389 22.8405 7.73176 23.187 8.18769C23.5336 8.64362 23.7369 9.19217 23.7711 9.76382C23.8054 10.3355 23.669 10.9044 23.3793 11.3984C22.9937 12.056 22.364 12.5346 21.6272 12.7301C20.8904 12.9256 20.1063 12.8221 19.4455 12.4421ZM7.9114 44.4217C7.52838 44.657 7.09564 44.7997 6.64782 44.8384C6.20001 44.8772 5.74938 44.8109 5.33165 44.6449C4.91392 44.479 4.54067 44.2179 4.24153 43.8824C3.9424 43.5469 3.7256 43.1463 3.60844 42.7123C3.49127 42.2784 3.47699 41.8231 3.56662 41.3826C3.65625 40.9421 3.84731 40.5287 4.12475 40.175C4.40218 39.8214 4.75826 39.5374 5.16472 39.3455C5.57118 39.1535 6.01683 39.059 6.46619 39.0695C7.10058 39.063 7.71919 39.2674 8.22485 39.6506C8.7305 40.0337 9.09454 40.5739 9.25992 41.1864C9.42529 41.7989 9.38266 42.449 9.13856 43.0346C8.89446 43.6202 8.46285 44.108 7.9114 44.4217ZM26.9386 73.2703C26.367 73.2703 25.8081 73.1008 25.3328 72.7832C24.8575 72.4657 24.4871 72.0143 24.2683 71.4862C24.0496 70.9581 23.9923 70.3769 24.1039 69.8163C24.2154 69.2557 24.4907 68.7407 24.8949 68.3365C25.2991 67.9323 25.8141 67.657 26.3747 67.5455C26.9354 67.434 27.5164 67.4911 28.0445 67.7099C28.5727 67.9286 29.024 68.2992 29.3416 68.7745C29.6592 69.2497 29.8287 69.8085 29.8287 70.3801C29.8287 71.1467 29.5243 71.8818 28.9823 72.4238C28.4402 72.9658 27.7051 73.2703 26.9386 73.2703ZM61.7282 64.011C62.1775 64.0005 62.6232 64.0949 63.0296 64.2868C63.4361 64.4787 63.7922 64.7629 64.0696 65.1165C64.347 65.4702 64.5381 65.8836 64.6277 66.3241C64.7174 66.7645 64.7031 67.2198 64.5859 67.6538C64.4687 68.0877 64.2519 68.4884 63.9528 68.8239C63.6537 69.1594 63.2804 69.4204 62.8627 69.5864C62.445 69.7524 61.9943 69.8186 61.5465 69.7799C61.0987 69.7411 60.666 69.5984 60.2829 69.3632C59.7439 69.0319 59.3286 68.5328 59.1005 67.9426C58.8725 67.3524 58.8443 66.7037 59.0205 66.096C59.1967 65.4883 59.5676 64.9551 60.076 64.5785C60.5844 64.2018 61.2025 64.0025 61.8351 64.011H61.7282ZM77.5975 37.4103C77.2712 37.602 76.91 37.7271 76.535 37.7784C76.16 37.8297 75.7787 37.8061 75.4129 37.7091C75.0471 37.612 74.704 37.4434 74.4038 37.213C74.1035 36.9826 73.8519 36.6949 73.6636 36.3667C73.3739 35.8727 73.2376 35.3037 73.2719 34.7321C73.3061 34.1604 73.5093 33.6118 73.8558 33.1559C74.2023 32.6999 74.6766 32.3573 75.2182 32.1713C75.7598 31.9853 76.3444 31.9644 76.898 32.1112C77.4515 32.2581 77.949 32.566 78.3272 32.996C78.7054 33.4261 78.9472 33.9588 79.0222 34.5265C79.0971 35.0943 79.0017 35.6715 78.7481 36.185C78.4944 36.6984 78.094 37.1249 77.5975 37.4103Z" stroke="#1E7FB8" mask="url(#path-1-outside-1)"/>
    <path d="M38.7403 44.7964C37.7211 44.807 36.7279 45.1188 35.8856 45.6927C35.0433 46.2667 34.3896 47.077 34.0069 48.0216C33.6242 48.9663 33.5295 50.003 33.7348 51.0014C33.9401 51.9997 34.4362 52.915 35.1606 53.632C35.885 54.349 36.8052 54.8356 37.8057 55.0306C38.8061 55.2256 39.8418 55.1202 40.7825 54.7278C41.7231 54.3353 42.5267 53.6734 43.0919 52.8252C43.6571 51.977 43.9587 50.9806 43.9587 49.9613C43.9588 49.2785 43.8234 48.6025 43.5605 47.9724C43.2976 47.3422 42.9124 46.7705 42.4271 46.2902C41.9418 45.8098 41.3661 45.4305 40.7333 45.1742C40.1005 44.9178 39.423 44.7894 38.7403 44.7964ZM38.7403 52.8248C38.211 52.8248 37.6937 52.6679 37.2536 52.3738C36.8135 52.0798 36.4704 51.6618 36.2678 51.1728C36.0653 50.6838 36.0123 50.1457 36.1156 49.6266C36.2189 49.1075 36.4737 48.6306 36.848 48.2563C37.2223 47.8821 37.6991 47.6273 38.2182 47.524C38.7374 47.4207 39.2754 47.4737 39.7644 47.6762C40.2534 47.8788 40.6714 48.2218 40.9654 48.6619C41.2595 49.102 41.4164 49.6194 41.4164 50.1487C41.3955 50.8444 41.1044 51.5047 40.6048 51.9893C40.1051 52.474 39.4363 52.7448 38.7403 52.7445V52.8248Z" stroke="#1E7FB8" mask="url(#path-1-outside-1)"/>
    <path d="M49.8194 37.892C49.1419 37.892 48.4797 38.0929 47.9164 38.4693C47.3531 38.8457 46.914 39.3807 46.6548 40.0066C46.3955 40.6325 46.3276 41.3212 46.4597 41.9857C46.5919 42.6502 46.9182 43.2606 47.3973 43.7396C47.8763 44.2187 48.4867 44.5449 49.1512 44.6771C49.8157 44.8093 50.5043 44.7414 51.1302 44.4821C51.7561 44.2229 52.2911 43.7838 52.6675 43.2205C53.0439 42.6572 53.2448 41.995 53.2448 41.3175C53.2448 40.409 52.8839 39.5377 52.2415 38.8953C51.5992 38.2529 50.7279 37.892 49.8194 37.892ZM49.8194 42.3879C49.6077 42.3879 49.4007 42.3251 49.2247 42.2075C49.0487 42.0899 48.9114 41.9226 48.8304 41.7271C48.7494 41.5315 48.7282 41.3162 48.7695 41.1086C48.8108 40.9009 48.9128 40.7102 49.0625 40.5605C49.2122 40.4108 49.4029 40.3088 49.6105 40.2675C49.8181 40.2262 50.0335 40.2475 50.2291 40.3285C50.4247 40.4095 50.5918 40.5467 50.7094 40.7228C50.8271 40.8988 50.8899 41.1058 50.8899 41.3175C50.8899 41.6014 50.7771 41.8736 50.5763 42.0744C50.3756 42.2751 50.1033 42.3879 49.8194 42.3879Z" stroke="#1E7FB8" mask="url(#path-1-outside-1)"/>
    <path d="M25.7611 39.8991C25.7558 40.5142 25.9333 41.117 26.2712 41.631C26.6091 42.145 27.092 42.5471 27.6588 42.7861C28.2255 43.0252 28.8506 43.0905 29.4545 42.9737C30.0584 42.857 30.614 42.5635 31.0508 42.1304C31.4876 41.6974 31.786 41.1443 31.908 40.5414C32.0299 39.9385 31.97 39.313 31.7358 38.7442C31.5017 38.1754 31.1038 37.689 30.5928 37.3467C30.0817 37.0044 29.4804 36.8216 28.8653 36.8215C28.0466 36.8215 27.2611 37.1449 26.6797 37.7213C26.0983 38.2977 25.7682 39.0805 25.7611 39.8991ZM29.5879 39.8991C29.6087 40.0075 29.6052 40.1191 29.5778 40.226C29.5504 40.3329 29.4998 40.4324 29.4295 40.5175C29.3592 40.6025 29.2709 40.671 29.1711 40.718C29.0713 40.765 28.9623 40.7894 28.8519 40.7894C28.7416 40.7894 28.6326 40.765 28.5328 40.718C28.4329 40.671 28.3447 40.6025 28.2744 40.5175C28.2041 40.4324 28.1534 40.3329 28.1261 40.226C28.0987 40.1191 28.0953 40.0075 28.1161 39.8991C28.1489 39.728 28.2402 39.5736 28.3745 39.4625C28.5088 39.3515 28.6777 39.2908 28.8519 39.2908C29.0262 39.2908 29.195 39.3515 29.3294 39.4625C29.4637 39.5736 29.5551 39.728 29.5879 39.8991Z" stroke="#1E7FB8" mask="url(#path-1-outside-1)"/>
    <path d="M50.1406 25.5016C49.3931 25.5016 48.6626 25.7236 48.0415 26.1394C47.4204 26.5552 46.9368 27.1461 46.652 27.8372C46.3672 28.5282 46.294 29.2882 46.4418 30.0209C46.5896 30.7536 46.9517 31.4259 47.4821 31.9525C48.0125 32.4792 48.6872 32.8364 49.4209 32.9789C50.1546 33.1215 50.9142 33.043 51.6032 32.7533C52.2922 32.4636 52.8796 31.9757 53.291 31.3517C53.7024 30.7277 53.9191 29.9956 53.9138 29.2481C53.9067 28.252 53.5062 27.2991 52.7994 26.5973C52.0925 25.8954 51.1367 25.5016 50.1406 25.5016ZM50.1406 30.6665C49.86 30.6665 49.5859 30.5833 49.3526 30.4274C49.1194 30.2716 48.9376 30.0501 48.8303 29.7909C48.7229 29.5318 48.6947 29.2466 48.7494 28.9715C48.8041 28.6963 48.9393 28.4436 49.1377 28.2453C49.336 28.0469 49.5887 27.9118 49.8639 27.8571C50.139 27.8024 50.4242 27.8304 50.6833 27.9378C50.9425 28.0451 51.164 28.2269 51.3199 28.4601C51.4757 28.6934 51.559 28.9676 51.559 29.2481C51.559 29.6243 51.4094 29.9851 51.1434 30.251C50.8775 30.517 50.5167 30.6665 50.1406 30.6665Z" stroke="#1E7FB8" mask="url(#path-1-outside-1)"/>
    <path d="M50.2743 47.6866L49.5251 48.4627C49.4099 48.568 49.3179 48.6962 49.255 48.839C49.192 48.9818 49.1594 49.1362 49.1594 49.2923C49.1594 49.4484 49.192 49.6028 49.255 49.7456C49.3179 49.8884 49.4099 50.0165 49.5251 50.1219C49.7457 50.3408 50.0439 50.4637 50.3547 50.4637C50.6655 50.4637 50.9637 50.3408 51.1843 50.1219L51.9335 49.3458C52.0487 49.2405 52.1407 49.1123 52.2037 48.9695C52.2666 48.8267 52.2992 48.6723 52.2992 48.5162C52.2992 48.3601 52.2666 48.2057 52.2037 48.0629C52.1407 47.9201 52.0487 47.7919 51.9335 47.6866C51.7129 47.4676 51.4147 47.3447 51.1039 47.3447C50.7931 47.3447 50.4949 47.4676 50.2743 47.6866Z" stroke="#1E7FB8" mask="url(#path-1-outside-1)"/>
    <path d="M41.2827 39.5779L42.0855 40.3272C42.1972 40.444 42.3318 40.5365 42.4808 40.599C42.6298 40.6614 42.7901 40.6925 42.9517 40.6903C43.1132 40.6882 43.2727 40.6529 43.42 40.5865C43.5673 40.5201 43.6993 40.424 43.8079 40.3044C43.9165 40.1847 43.9994 40.044 44.0513 39.891C44.1031 39.7379 44.1229 39.5759 44.1094 39.4149C44.096 39.2539 44.0496 39.0973 43.973 38.9551C43.8965 38.8128 43.7914 38.6877 43.6645 38.5878L42.8617 37.8385C42.6411 37.6195 42.3429 37.4966 42.0321 37.4966C41.7213 37.4966 41.4229 37.6195 41.2023 37.8385C41.0824 37.9521 40.9885 38.0903 40.9268 38.2436C40.865 38.3968 40.837 38.5616 40.8446 38.7266C40.8522 38.8917 40.8953 39.0531 40.9709 39.2C41.0465 39.3469 41.1528 39.4758 41.2827 39.5779Z" stroke="#1E7FB8" mask="url(#path-1-outside-1)"/>
    <path d="M31.0331 31.2017C31.0282 32.373 31.3843 33.5172 32.0528 34.4789C32.7213 35.4407 33.6698 36.1731 34.7693 36.5766C35.8688 36.9801 37.0658 37.0352 38.1977 36.7343C39.3296 36.4334 40.3414 35.791 41.0953 34.8947C41.2874 34.6557 41.3787 34.3513 41.3498 34.046C41.3209 33.7408 41.1742 33.4589 40.9406 33.2602C40.7071 33.0615 40.4052 32.9617 40.0993 32.9821C39.7933 33.0025 39.5075 33.1415 39.3024 33.3694C38.8483 33.9007 38.2391 34.2764 37.5605 34.4438C36.882 34.6112 36.1681 34.5619 35.519 34.3027C34.8699 34.0435 34.3183 33.5876 33.9416 32.9989C33.565 32.4101 33.382 31.7181 33.4188 31.0202C33.4555 30.3222 33.7101 29.6534 34.1465 29.1074C34.5828 28.5615 35.1791 28.1659 35.8519 27.9763C36.5246 27.7867 37.2397 27.8126 37.897 28.0503C38.5543 28.288 39.1207 28.7256 39.5165 29.3016C39.6002 29.4327 39.7096 29.5454 39.8381 29.633C39.9666 29.7205 40.1114 29.7812 40.2639 29.8112C40.4165 29.8412 40.5736 29.84 40.7257 29.8076C40.8778 29.7752 41.0218 29.7123 41.1489 29.6228C41.4034 29.4445 41.5771 29.173 41.6322 28.8672C41.6873 28.5615 41.6195 28.2463 41.4432 27.9904C40.7569 26.9836 39.7661 26.2232 38.616 25.8208C37.466 25.4183 36.2173 25.3949 35.053 25.754C33.8887 26.1132 32.8702 26.836 32.1467 27.8164C31.4233 28.7968 31.0329 29.9833 31.0331 31.2017Z" stroke="#1E7FB8" mask="url(#path-1-outside-1)"/>
</svg>
